STARTFONT 2.1
FONT -FontForge-Untitled2-Regular-R-Normal--18-170-75-75-M-180-ISO8859-1
SIZE 17 75 75
FONTBOUNDINGBOX 15 27 0 2
COMMENT "Generated by fontforge, http://fontforge.sourceforge.net"
COMMENT "Copyright (c) 2017, Eric"
STARTPROPERTIES 27
FOUNDRY "FontForge"
FAMILY_NAME "Untitled2"
WEIGHT_NAME "Regular"
SLANT "R"
SETWIDTH_NAME "Normal"
ADD_STYLE_NAME ""
PIXEL_SIZE 18
POINT_SIZE 170
RESOLUTION_X 75
RESOLUTION_Y 75
SPACING "M"
AVERAGE_WIDTH 180
CHARSET_REGISTRY "ISO8859"
CHARSET_ENCODING "1"
FONTNAME_REGISTRY ""
CHARSET_COLLECTIONS "ISOLatin1Encoding"
FONT_NAME "Untitled2"
FACE_NAME "Untitled2"
COPYRIGHT "Copyright (c) 2017, Eric"
FONT_VERSION "001.000"
FONT_ASCENT 14
FONT_DESCENT 4
UNDERLINE_POSITION -2
UNDERLINE_THICKNESS 1
RAW_ASCENT 800
RAW_DESCENT 200
FIGURE_WIDTH 18
ENDPROPERTIES
CHARS 10
STARTCHAR zero
ENCODING 48
SWIDTH 1000 0
DWIDTH 18 0
BBX 15 27 0 2
BITMAP
7FFC
BFFA
DFF6
E00E
E00E
E00E
E00E
E00E
E00E
E00E
E00E
E00E
C006
0000
C006
E00E
E00E
E00E
E00E
E00E
E00E
E00E
E00E
E00E
DFF6
BFFA
7FFC
ENDCHAR
STARTCHAR one
ENCODING 49
SWIDTH 1000 0
DWIDTH 18 0
BBX 15 27 0 2
BITMAP
7FFC
BFFA
DFF6
E00E
E00E
E00E
E00E
E00E
E00E
E00E
E00E
E00E
C006
0000
C006
E00E
E00E
E00E
E00E
E00E
E00E
E00E
E00E
E00E
DFF6
BFFA
7FFC
ENDCHAR
STARTCHAR two
ENCODING 50
SWIDTH 1000 0
DWIDTH 18 0
BBX 15 27 0 2
BITMAP
7FFC
BFFA
DFF6
E00E
E00E
E00E
E00E
E00E
E00E
E00E
E00E
E00E
C006
0000
C006
E00E
E00E
E00E
E00E
E00E
E00E
E00E
E00E
E00E
DFF6
BFFA
7FFC
ENDCHAR
STARTCHAR three
ENCODING 51
SWIDTH 1000 0
DWIDTH 18 0
BBX 15 27 0 2
BITMAP
7FFC
BFFA
DFF6
E00E
E00E
E00E
E00E
E00E
E00E
E00E
E00E
E00E
C006
0000
C006
E00E
E00E
E00E
E00E
E00E
E00E
E00E
E00E
E00E
DFF6
BFFA
7FFC
ENDCHAR
STARTCHAR four
ENCODING 52
SWIDTH 1000 0
DWIDTH 18 0
BBX 15 27 0 2
BITMAP
7FFC
BFFA
DFF6
E00E
E00E
E00E
E00E
E00E
E00E
E00E
E00E
E00E
C006
0000
C006
E00E
E00E
E00E
E00E
E00E
E00E
E00E
E00E
E00E
DFF6
BFFA
7FFC
ENDCHAR
STARTCHAR five
ENCODING 53
SWIDTH 1000 0
DWIDTH 18 0
BBX 15 27 0 2
BITMAP
7FFC
BFFA
DFF6
E00E
E00E
E00E
E00E
E00E
E00E
E00E
E00E
E00E
C006
0000
C006
E00E
E00E
E00E
E00E
E00E
E00E
E00E
E00E
E00E
DFF6
BFFA
7FFC
ENDCHAR
STARTCHAR six
ENCODING 54
SWIDTH 1000 0
DWIDTH 18 0
BBX 15 27 0 2
BITMAP
7FFC
BFFA
DFF6
E00E
E00E
E00E
E00E
E00E
E00E
E00E
E00E
E00E
C006
0000
C006
E00E
E00E
E00E
E00E
E00E
E00E
E00E
E00E
E00E
DFF6
BFFA
7FFC
ENDCHAR
STARTCHAR seven
ENCODING 55
SWIDTH 1000 0
DWIDTH 18 0
BBX 15 27 0 2
BITMAP
7FFC
BFFA
DFF6
E00E
E00E
E00E
E00E
E00E
E00E
E00E
E00E
E00E
C006
0000
C006
E00E
E00E
E00E
E00E
E00E
E00E
E00E
E00E
E00E
DFF6
BFFA
7FFC
ENDCHAR
STARTCHAR eight
ENCODING 56
SWIDTH 1000 0
DWIDTH 18 0
BBX 15 27 0 2
BITMAP
7FFC
BFFA
DFF6
E00E
E00E
E00E
E00E
E00E
E00E
E00E
E00E
E00E
C006
0000
C006
E00E
E00E
E00E
E00E
E00E
E00E
E00E
E00E
E00E
DFF6
BFFA
7FFC
ENDCHAR
STARTCHAR nine
ENCODING 57
SWIDTH 1000 0
DWIDTH 18 0
BBX 15 27 0 2
BITMAP
7FFC
BFFA
DFF6
E00E
E00E
E00E
E00E
E00E
E00E
E00E
E00E
E00E
C006
0000
C006
E00E
E00E
E00E
E00E
E00E
E00E
E00E
E00E
E00E
DFF6
BFFA
7FFC
ENDCHAR
ENDFONT
