STARTFONT 2.1
FONT -FontForge-Untitled2-Regular-R-Normal--14-100-100-100-M-140-ISO8859-1
SIZE 10 100 100
FONTBOUNDINGBOX 11 19 0 3
COMMENT "Generated by fontforge, http://fontforge.sourceforge.net"
COMMENT "Copyright (c) 2017, Eric"
STARTPROPERTIES 27
FOUNDRY "FontForge"
FAMILY_NAME "Untitled2"
WEIGHT_NAME "Regular"
SLANT "R"
SETWIDTH_NAME "Normal"
ADD_STYLE_NAME ""
PIXEL_SIZE 14
POINT_SIZE 100
RESOLUTION_X 100
RESOLUTION_Y 100
SPACING "M"
AVERAGE_WIDTH 140
CHARSET_REGISTRY "ISO8859"
CHARSET_ENCODING "1"
FONTNAME_REGISTRY ""
CHARSET_COLLECTIONS "ISOLatin1Encoding"
FONT_NAME "Untitled2"
FACE_NAME "Untitled2"
COPYRIGHT "Copyright (c) 2017, Eric"
FONT_VERSION "001.000"
FONT_ASCENT 9
FONT_DESCENT 5
UNDERLINE_POSITION -1
UNDERLINE_THICKNESS 1
RAW_ASCENT 800
RAW_DESCENT 200
FIGURE_WIDTH 14
ENDPROPERTIES
CHARS 10
STARTCHAR zero
ENCODING 48
SWIDTH 1000 0
DWIDTH 14 0
BBX 11 19 0 3
BITMAP
7FC0
BFA0
DF60
E0E0
E0E0
E0E0
E0E0
E0E0
C060
0000
C060
E0E0
E0E0
E0E0
E0E0
E0E0
DF60
BFA0
7FC0
ENDCHAR
STARTCHAR one
ENCODING 49
SWIDTH 1000 0
DWIDTH 14 0
BBX 3 17 8 4
BITMAP
20
60
E0
E0
E0
E0
E0
60
00
60
E0
E0
E0
E0
E0
60
20
ENDCHAR
STARTCHAR two
ENCODING 50
SWIDTH 1000 0
DWIDTH 14 0
BBX 11 19 0 3
BITMAP
7FC0
3FA0
1F60
00E0
00E0
00E0
00E0
00E0
1F60
3F80
DF00
E000
E000
E000
E000
E000
DF00
BF80
7FC0
ENDCHAR
STARTCHAR three
ENCODING 51
SWIDTH 1000 0
DWIDTH 14 0
BBX 10 19 1 3
BITMAP
FF80
7F40
3EC0
01C0
01C0
01C0
01C0
01C0
3EC0
7F00
3EC0
01C0
01C0
01C0
01C0
01C0
3EC0
7F40
FF80
ENDCHAR
STARTCHAR four
ENCODING 52
SWIDTH 1000 0
DWIDTH 14 0
BBX 11 17 0 4
BITMAP
8020
C060
E0E0
E0E0
E0E0
E0E0
E0E0
DF60
3F80
1F60
00E0
00E0
00E0
00E0
00E0
0060
0020
ENDCHAR
STARTCHAR five
ENCODING 53
SWIDTH 1000 0
DWIDTH 14 0
BBX 11 19 0 3
BITMAP
7FC0
BF80
DF00
E000
E000
E000
E000
E000
DF00
3F80
1F60
00E0
00E0
00E0
00E0
00E0
1F60
3FA0
7FC0
ENDCHAR
STARTCHAR six
ENCODING 54
SWIDTH 1000 0
DWIDTH 14 0
BBX 11 19 0 3
BITMAP
7FC0
BF80
DF00
E000
E000
E000
E000
E000
DF00
3F80
DF60
E0E0
E0E0
E0E0
E0E0
E0E0
DF60
BFA0
7FC0
ENDCHAR
STARTCHAR seven
ENCODING 55
SWIDTH 1000 0
DWIDTH 14 0
BBX 10 18 1 4
BITMAP
FF80
7F40
3EC0
01C0
01C0
01C0
01C0
01C0
00C0
0000
00C0
01C0
01C0
01C0
01C0
01C0
00C0
0040
ENDCHAR
STARTCHAR eight
ENCODING 56
SWIDTH 1000 0
DWIDTH 14 0
BBX 11 19 0 3
BITMAP
7FC0
BFA0
DF60
E0E0
E0E0
E0E0
E0E0
E0E0
DF60
3F80
DF60
E0E0
E0E0
E0E0
E0E0
E0E0
DF60
BFA0
7FC0
ENDCHAR
STARTCHAR nine
ENCODING 57
SWIDTH 1000 0
DWIDTH 14 0
BBX 11 19 0 3
BITMAP
7FC0
BFA0
DF60
E0E0
E0E0
E0E0
E0E0
E0E0
DF60
3F80
1F60
00E0
00E0
00E0
00E0
00E0
1F60
3FA0
7FC0
ENDCHAR
ENDFONT
